<svg width="12" height="12" viewBox="0 0 12 12" fill="none" xmlns="http://www.w3.org/2000/svg">
<path d="M6 3.05176e-05C9.2052 3.05176e-05 12 2.64603 12 5.70003C12 8.70243 9.2682 11.0652 6 11.0652C5.30099 11.0656 4.60635 10.955 3.942 10.7376C3.6636 11.0076 3.5682 11.0994 2.9772 11.6694C2.5512 11.991 2.1504 12.1002 1.7922 11.8974C1.431 11.6934 1.3224 11.2962 1.3962 10.773L1.6362 9.38163C0.594 8.40123 0 7.10523 0 5.70003C0 2.64603 2.7942 3.05176e-05 6 3.05176e-05ZM6 0.840031C3.2484 0.840031 0.84 3.12003 0.84 5.70003C0.84 6.92703 1.3872 8.05683 2.352 8.89803L2.364 8.90823L2.5422 9.06303L2.502 9.29703L2.4192 9.77943L2.397 9.90783L2.226 10.9026C2.21592 10.9696 2.2099 11.0371 2.208 11.1048V11.1618C2.208 11.1648 2.2074 11.166 2.2068 11.1666C2.211 11.1606 2.2926 11.1348 2.4324 11.0328L3.7344 9.76923L3.9828 9.86283C4.62805 10.1036 5.31129 10.2265 6 10.2258C8.8296 10.2258 11.16 8.20983 11.16 5.70003C11.16 3.12063 8.7516 0.840031 6 0.840031ZM3.1362 4.68783C3.25708 4.68341 3.3776 4.70341 3.49057 4.74662C3.60355 4.78983 3.70665 4.85537 3.79373 4.93932C3.88081 5.02327 3.95006 5.12392 3.99737 5.23524C4.04468 5.34656 4.06906 5.46628 4.06906 5.58723C4.06906 5.70819 4.04468 5.8279 3.99737 5.93922C3.95006 6.05054 3.88081 6.15119 3.79373 6.23514C3.70665 6.31909 3.60355 6.38463 3.49057 6.42784C3.3776 6.47105 3.25708 6.49105 3.1362 6.48663C2.90335 6.47812 2.68287 6.37964 2.52115 6.2119C2.35942 6.04416 2.26906 5.82024 2.26906 5.58723C2.26906 5.35423 2.35942 5.1303 2.52115 4.96256C2.68287 4.79482 2.90335 4.69634 3.1362 4.68783ZM6.135 4.68783C6.25588 4.68341 6.3764 4.70341 6.48937 4.74662C6.60235 4.78983 6.70545 4.85537 6.79253 4.93932C6.87961 5.02327 6.94886 5.12392 6.99617 5.23524C7.04348 5.34656 7.06786 5.46628 7.06786 5.58723C7.06786 5.70819 7.04348 5.8279 6.99617 5.93922C6.94886 6.05054 6.87961 6.15119 6.79253 6.23514C6.70545 6.31909 6.60235 6.38463 6.48937 6.42784C6.3764 6.47105 6.25588 6.49105 6.135 6.48663C5.90215 6.47812 5.68167 6.37964 5.51995 6.2119C5.35822 6.04416 5.26786 5.82024 5.26786 5.58723C5.26786 5.35423 5.35822 5.1303 5.51995 4.96256C5.68167 4.79482 5.90215 4.69634 6.135 4.68783ZM9.1332 4.68783C9.25408 4.68341 9.3746 4.70341 9.48757 4.74662C9.60055 4.78983 9.70365 4.85537 9.79073 4.93932C9.87781 5.02327 9.94706 5.12392 9.99437 5.23524C10.0417 5.34656 10.0661 5.46628 10.0661 5.58723C10.0661 5.70819 10.0417 5.8279 9.99437 5.93922C9.94706 6.05054 9.87781 6.15119 9.79073 6.23514C9.70365 6.31909 9.60055 6.38463 9.48757 6.42784C9.3746 6.47105 9.25408 6.49105 9.1332 6.48663C8.90035 6.47812 8.67987 6.37964 8.51815 6.2119C8.35642 6.04416 8.26606 5.82024 8.26606 5.58723C8.26606 5.35423 8.35642 5.1303 8.51815 4.96256C8.67987 4.79482 8.90035 4.69634 9.1332 4.68783Z" fill="#C4C4C4"/>
</svg>
