<svg width="23" height="23" viewBox="0 0 23 23" fill="none" xmlns="http://www.w3.org/2000/svg">
<path d="M9 0.00100708H1C0.734784 0.00100708 0.480429 0.106363 0.292892 0.2939C0.105356 0.481436 0 0.735791 0 1.00101V9.00101C0 9.26622 0.105356 9.52058 0.292892 9.70811C0.480429 9.89565 0.734784 10.001 1 10.001H9C9.26522 10.001 9.51957 9.89565 9.70711 9.70811C9.89464 9.52058 10 9.26622 10 9.00101V1.00101C10 0.735791 9.89464 0.481436 9.70711 0.2939C9.51957 0.106363 9.26522 0.00100708 9 0.00100708ZM9 9.00101H1V1.00101H9V9.00101Z" fill="#D7D7D7"/>
<path d="M9.00299 12H1.00299C0.450706 12 0.00299072 12.4477 0.00299072 13V21C0.00299072 21.5523 0.450706 22 1.00299 22H9.00299C9.55528 22 10.003 21.5523 10.003 21V13C10.003 12.4477 9.55528 12 9.00299 12Z" fill="#D7D7D7"/>
<path d="M21 0H13C12.4477 0 12 0.447715 12 1V9C12 9.55229 12.4477 10 13 10H21C21.5523 10 22 9.55229 22 9V1C22 0.447715 21.5523 0 21 0Z" fill="#D7D7D7"/>
<path d="M20 19.294C20.6429 18.5043 20.9958 17.5183 21 16.5C21.0115 15.467 20.671 14.4608 20.0345 13.647C19.3981 12.8332 18.5036 12.2603 17.4982 12.0225C16.4928 11.7848 15.4364 11.8963 14.5028 12.3388C13.5693 12.7813 12.8142 13.5284 12.3617 14.4572C11.9093 15.386 11.7865 16.4411 12.0135 17.449C12.2405 18.4569 12.8038 19.3574 13.6107 20.0026C14.4177 20.6477 15.4202 20.9989 16.4533 20.9984C17.4864 20.998 18.4886 20.6458 19.295 20L21.169 21.874C21.2633 21.9651 21.3896 22.0155 21.5207 22.0143C21.6518 22.0132 21.7772 21.9606 21.8699 21.8679C21.9626 21.7752 22.0152 21.6498 22.0163 21.5187C22.0175 21.3876 21.9671 21.2613 21.876 21.167L20 19.294ZM13 16.5C13 15.8078 13.2053 15.1311 13.5899 14.5555C13.9745 13.9799 14.5211 13.5313 15.1606 13.2664C15.8002 13.0015 16.5039 12.9322 17.1828 13.0673C17.8618 13.2023 18.4854 13.5357 18.9749 14.0251C19.4644 14.5146 19.7977 15.1383 19.9328 15.8172C20.0678 16.4961 19.9985 17.1999 19.7336 17.8394C19.4687 18.4789 19.0201 19.0256 18.4445 19.4102C17.8689 19.7947 17.1922 20 16.5 20C15.5717 20 14.6815 19.6313 14.0251 18.9749C13.3688 18.3185 13 17.4283 13 16.5Z" fill="#D7D7D7"/>
</svg>
